<svg xmlns="http://www.w3.org/2000/svg" width="40" height="32" viewBox="0 0 40 32">
  <metadata><?xpacket begin="﻿" id="W5M0MpCehiHzreSzNTczkc9d"?>
<x:xmpmeta xmlns:x="adobe:ns:meta/" x:xmptk="Adobe XMP Core 5.6-c138 79.159824, 2016/09/14-01:09:01        ">
   <rdf:RDF xmlns:rdf="http://www.w3.org/1999/02/22-rdf-syntax-ns#">
      <rdf:Description rdf:about=""/>
   </rdf:RDF>
</x:xmpmeta>
                                                                                                    
                                                                                                    
                                                                                                    
                                                                                                    
                                                                                                    
                                                                                                    
                                                                                                    
                                                                                                    
                                                                                                    
                                                                                                    
                                                                                                    
                                                                                                    
                                                                                                    
                                                                                                    
                                                                                                    
                                                                                                    
                                                                                                    
                                                                                                    
                                                                                                    
                                                                                                    
                           
<?xpacket end="w"?></metadata>
<defs>
    <style>
      .cls-1 {
        fill: #6381a7;
        fill-rule: evenodd;
      }
    </style>
  </defs>
  <path class="cls-1" d="M345.424,160.64c-3.029,3.243-13.563,13.645-13.563,13.645a2.385,2.385,0,0,1-1.681.713,2.357,2.357,0,0,1-1.272-.383,2.508,2.508,0,0,0,.488-0.33s10.533-10.4,13.563-13.645a2.623,2.623,0,0,0,0-3.28c-3.03-3.244-13.563-13.647-13.563-13.647a2.43,2.43,0,0,0-.488-0.329A2.358,2.358,0,0,1,330.18,143a2.385,2.385,0,0,1,1.681.713s10.534,10.4,13.563,13.646A2.624,2.624,0,0,1,345.424,160.64ZM341,159a2.391,2.391,0,0,1-.576,1.641c-3.029,3.242-13.563,13.645-13.563,13.645a2.385,2.385,0,0,1-1.681.713,2.589,2.589,0,0,1-2.5-2.666v-6.215c-9.538.158-14.988,3.051-14.988,7.992a0.862,0.862,0,0,1-.833.889,0.114,0.114,0,0,1-.032,0,0.861,0.861,0,0,1-.833-0.889,0.957,0.957,0,0,1,.033-0.252c0.074-13.61,6.121-21.558,16.653-21.953v-6.237a2.589,2.589,0,0,1,2.5-2.667,2.385,2.385,0,0,1,1.681.713s10.534,10.4,13.563,13.646A2.386,2.386,0,0,1,341,159Z" transform="translate(-306 -143)"/>
</svg>
