<svg xmlns="http://www.w3.org/2000/svg" width="33" height="44" viewBox="0 0 33 44">
  <metadata><?xpacket begin="﻿" id="W5M0MpCehiHzreSzNTczkc9d"?>
<x:xmpmeta xmlns:x="adobe:ns:meta/" x:xmptk="Adobe XMP Core 5.6-c138 79.159824, 2016/09/14-01:09:01        ">
   <rdf:RDF xmlns:rdf="http://www.w3.org/1999/02/22-rdf-syntax-ns#">
      <rdf:Description rdf:about=""/>
   </rdf:RDF>
</x:xmpmeta>
                                                                                                    
                                                                                                    
                                                                                                    
                                                                                                    
                                                                                                    
                                                                                                    
                                                                                                    
                                                                                                    
                                                                                                    
                                                                                                    
                                                                                                    
                                                                                                    
                                                                                                    
                                                                                                    
                                                                                                    
                                                                                                    
                                                                                                    
                                                                                                    
                                                                                                    
                                                                                                    
                           
<?xpacket end="w"?></metadata>
<defs>
    <style>
      .cls-1 {
        fill: #6888b0;
        fill-rule: evenodd;
      }
    </style>
  </defs>
  <path class="cls-1" d="M339.831,181H311.169A2.171,2.171,0,0,1,309,178.831V139.169A2.171,2.171,0,0,1,311.169,137h21.913a1.025,1.025,0,0,1,.727.3s0,0,0,0l7.888,7.886a1.029,1.029,0,0,1,.3.718s0,0.007,0,.01v32.915A2.171,2.171,0,0,1,339.831,181Zm-5.719-40.483v4.261a0.109,0.109,0,0,0,.109.108h4.261Zm5.827,6.43h-5.718a2.172,2.172,0,0,1-2.17-2.169V139.06H311.169a0.109,0.109,0,0,0-.108.109v39.662a0.109,0.109,0,0,0,.108.109h28.662a0.109,0.109,0,0,0,.108-0.109h0V146.947Zm-5.32,18.642H316.381a1.031,1.031,0,0,1,0-2.061h18.238A1.031,1.031,0,0,1,334.619,165.589Zm0-6.217H316.381a1.03,1.03,0,1,1,0-2.06h18.238A1.03,1.03,0,0,1,334.619,159.372Zm0-6.216H316.381a1.031,1.031,0,0,1,0-2.061h18.238A1.031,1.031,0,0,1,334.619,153.156Zm-18.238,16.589H325.5a1.03,1.03,0,0,1,0,2.06h-9.119A1.03,1.03,0,1,1,316.381,169.745Z" transform="translate(-309 -137)"/>
</svg>
