<svg xmlns="http://www.w3.org/2000/svg" width="24" height="27" viewBox="0 0 24 27">
  <metadata><?xpacket begin="﻿" id="W5M0MpCehiHzreSzNTczkc9d"?>
<x:xmpmeta xmlns:x="adobe:ns:meta/" x:xmptk="Adobe XMP Core 5.6-c138 79.159824, 2016/09/14-01:09:01        ">
   <rdf:RDF xmlns:rdf="http://www.w3.org/1999/02/22-rdf-syntax-ns#">
      <rdf:Description rdf:about=""/>
   </rdf:RDF>
</x:xmpmeta>
                                                                                                    
                                                                                                    
                                                                                                    
                                                                                                    
                                                                                                    
                                                                                                    
                                                                                                    
                                                                                                    
                                                                                                    
                                                                                                    
                                                                                                    
                                                                                                    
                                                                                                    
                                                                                                    
                                                                                                    
                                                                                                    
                                                                                                    
                                                                                                    
                                                                                                    
                                                                                                    
                           
<?xpacket end="w"?></metadata>
<defs>
    <style>
      .cls-1 {
        fill: #797979;
        fill-rule: evenodd;
      }
    </style>
  </defs>
  <path class="cls-1" d="M54.854,368h-19.7a2.152,2.152,0,0,1-2.148-2.154V348.44H57v17.408A2.152,2.152,0,0,1,54.854,368ZM39.129,350.826H34.846v4.294h4.284v-4.294Zm0,5.384H34.846V360.5h4.284V356.21Zm0,5.384H34.846v4.294h4.284v-4.294ZM44.5,350.826H40.216v4.294H44.5v-4.294Zm0,5.384H40.216V360.5H44.5V356.21Zm0,5.384H40.216v4.294H44.5v-4.294Zm5.37-10.768H45.587v4.294H49.87v-4.294Zm0,5.384H45.587V360.5H49.87V356.21Zm0,5.384H45.587v4.294H49.87v-4.294Zm5.371-10.768H50.957v4.294h4.283v-4.294Zm0,5.384H50.957V360.5h4.283V356.21Zm0,5.384H50.957v4.294h4.283v-4.294ZM33.009,346.1a2.151,2.151,0,0,1,2.148-2.153h2.971V341h2.144v2.952h9.671V341h2.144v2.952h2.768A2.151,2.151,0,0,1,57,346.1v1.384H33.009V346.1Zm19.006-.286v-1.791H49.993v1.791h2.023Zm-13.838,0H40.2v-1.791H38.177v1.791ZM52,354a8,8,0,1,1-8,8A8,8,0,0,1,52,354Zm3.918,4.718a0.284,0.284,0,0,0-.2-0.077H54.191a2.888,2.888,0,0,0-.57-1.227H55.7a0.285,0.285,0,0,0,.2-0.077,0.261,0.261,0,0,0,.08-0.2v-0.87a0.261,0.261,0,0,0-.08-0.2A0.285,0.285,0,0,0,55.7,356h-7.41a0.285,0.285,0,0,0-.2.077,0.26,0.26,0,0,0-.08.2v1.134a0.257,0.257,0,0,0,.085.192,0.28,0.28,0,0,0,.2.081h1.291q1.879,0,2.387.963H48.286a0.285,0.285,0,0,0-.2.077,0.259,0.259,0,0,0-.08.2v0.869a0.259,0.259,0,0,0,.08.2,0.285,0.285,0,0,0,.2.077h3.8a1.686,1.686,0,0,1-.913,1.066,4.178,4.178,0,0,1-1.892.366h-1a0.284,0.284,0,0,0-.2.081,0.257,0.257,0,0,0-.085.192v1.083a0.252,0.252,0,0,0,.08.188q1.71,1.738,4.435,4.867a0.267,0.267,0,0,0,.223.1h1.736a0.26,0.26,0,0,0,.258-0.153,0.226,0.226,0,0,0-.036-0.29q-2.6-3.051-4.088-4.569a4.627,4.627,0,0,0,2.458-.938,3.151,3.151,0,0,0,1.149-2h1.5a0.284,0.284,0,0,0,.2-0.076,0.26,0.26,0,0,0,.08-0.2v-0.87A0.258,0.258,0,0,0,55.918,358.718Z" transform="translate(-33 -341)"/>
</svg>
