<svg xmlns="http://www.w3.org/2000/svg" width="39" height="44" viewBox="0 0 39 44">
  <metadata><?xpacket begin="﻿" id="W5M0MpCehiHzreSzNTczkc9d"?>
<x:xmpmeta xmlns:x="adobe:ns:meta/" x:xmptk="Adobe XMP Core 5.6-c138 79.159824, 2016/09/14-01:09:01        ">
   <rdf:RDF xmlns:rdf="http://www.w3.org/1999/02/22-rdf-syntax-ns#">
      <rdf:Description rdf:about=""/>
   </rdf:RDF>
</x:xmpmeta>
                                                                                                    
                                                                                                    
                                                                                                    
                                                                                                    
                                                                                                    
                                                                                                    
                                                                                                    
                                                                                                    
                                                                                                    
                                                                                                    
                                                                                                    
                                                                                                    
                                                                                                    
                                                                                                    
                                                                                                    
                                                                                                    
                                                                                                    
                                                                                                    
                                                                                                    
                                                                                                    
                           
<?xpacket end="w"?></metadata>
<defs>
    <style>
      .cls-1 {
        fill: #6888b0;
        fill-rule: evenodd;
      }
    </style>
  </defs>
  <path class="cls-1" d="M342.141,159.309v-6.3H335.18v5.295a12.876,12.876,0,0,0-1.766.359v-5.654h-6.961v7h3.812a13.119,13.119,0,0,0-2.344,1.776h-1.468v1.667a13,13,0,0,0-1.766,3.269v-4.936h-6.961v7h6.384a13.292,13.292,0,0,0-.2,1.776h-6.182v7h6.961v-1.836A13.031,13.031,0,0,0,328.3,181H309.505a3.5,3.5,0,0,1-3.49-3.51V149.125H345v11.932A13.021,13.021,0,0,0,342.141,159.309Zm-26.181-6.3H309v7h6.961v-7Zm0,8.773H309v7h6.961v-7Zm0,8.774H309v7h6.961v-7Zm8.727-17.547h-6.961v7h6.961v-7Zm-18.672-7.7a3.5,3.5,0,0,1,3.49-3.51h4.828V137h3.483v4.81h15.716V137h3.484v4.81h4.5a3.5,3.5,0,0,1,3.491,3.51v2.255H306.015v-2.255Zm27.6-.466H336.9v-2.92h-3.287v2.92Zm-19.2,0H317.7v-2.92h-3.288v2.92Zm16.427,16.593h12.041a0.463,0.463,0,0,1,.333.125,0.425,0.425,0,0,1,.129.319V163.3a0.425,0.425,0,0,1-.129.319,0.459,0.459,0,0,1-.333.125h-3.372a4.72,4.72,0,0,1,.926,2h2.475a0.459,0.459,0,0,1,.333.125,0.424,0.424,0,0,1,.13.319v1.417a0.426,0.426,0,0,1-.13.32,0.463,0.463,0,0,1-.333.125h-2.431a5.153,5.153,0,0,1-1.867,3.251,7.52,7.52,0,0,1-4,1.528q2.418,2.472,6.643,7.446a0.369,0.369,0,0,1,.058.472,0.422,0.422,0,0,1-.42.25h-2.822a0.434,0.434,0,0,1-.362-0.166q-4.428-5.1-7.207-7.933a0.406,0.406,0,0,1-.13-0.306v-1.764a0.42,0.42,0,0,1,.138-0.313,0.456,0.456,0,0,1,.325-0.131h1.621a6.764,6.764,0,0,0,3.075-.6,2.741,2.741,0,0,0,1.484-1.736h-6.18a0.46,0.46,0,0,1-.333-0.126,0.421,0.421,0,0,1-.13-0.319v-1.417a0.428,0.428,0,0,1,.13-0.32,0.463,0.463,0,0,1,.333-0.125h5.977q-0.825-1.569-3.878-1.569h-2.1a0.453,0.453,0,0,1-.325-0.132,0.418,0.418,0,0,1-.138-0.313v-1.848a0.426,0.426,0,0,1,.13-0.319A0.463,0.463,0,0,1,330.84,161.442Z" transform="translate(-306 -137)"/>
</svg>
