<svg xmlns="http://www.w3.org/2000/svg" width="32" height="41" viewBox="0 0 32 41">
  <metadata><?xpacket begin="﻿" id="W5M0MpCehiHzreSzNTczkc9d"?>
<x:xmpmeta xmlns:x="adobe:ns:meta/" x:xmptk="Adobe XMP Core 5.6-c138 79.159824, 2016/09/14-01:09:01        ">
   <rdf:RDF xmlns:rdf="http://www.w3.org/1999/02/22-rdf-syntax-ns#">
      <rdf:Description rdf:about=""/>
   </rdf:RDF>
</x:xmpmeta>
                                                                                                    
                                                                                                    
                                                                                                    
                                                                                                    
                                                                                                    
                                                                                                    
                                                                                                    
                                                                                                    
                                                                                                    
                                                                                                    
                                                                                                    
                                                                                                    
                                                                                                    
                                                                                                    
                                                                                                    
                                                                                                    
                                                                                                    
                                                                                                    
                                                                                                    
                                                                                                    
                           
<?xpacket end="w"?></metadata>
<defs>
    <style>
      .cls-1 {
        fill: #6888b0;
        fill-rule: evenodd;
      }
    </style>
  </defs>
  <path class="cls-1" d="M313.333,179V141.417h18.943L342,151.384V179H313.333Zm6-6.15H336a0.684,0.684,0,0,0,0-1.367H319.333A0.684,0.684,0,0,0,319.333,172.85Zm0-5.467H336a0.684,0.684,0,0,0,0-1.367H319.333A0.684,0.684,0,0,0,319.333,167.383Zm0-5.467H336a0.683,0.683,0,0,0,0-1.366H319.333A0.683,0.683,0,0,0,319.333,161.916Zm0-5.466H336a0.684,0.684,0,0,0,0-1.367H319.333A0.684,0.684,0,0,0,319.333,156.45ZM326,149.617h-6.667a0.683,0.683,0,0,0,0,1.366H326A0.683,0.683,0,0,0,326,149.617Zm5.333-6.834v9.567h9.334ZM312,140.05v35.533h-2V138h28.667v8.2l-6-6.15H312Z" transform="translate(-310 -138)"/>
</svg>
