<svg xmlns="http://www.w3.org/2000/svg" width="20" height="26" viewBox="0 0 20 26">
  <metadata><?xpacket begin="﻿" id="W5M0MpCehiHzreSzNTczkc9d"?>
<x:xmpmeta xmlns:x="adobe:ns:meta/" x:xmptk="Adobe XMP Core 5.6-c138 79.159824, 2016/09/14-01:09:01        ">
   <rdf:RDF xmlns:rdf="http://www.w3.org/1999/02/22-rdf-syntax-ns#">
      <rdf:Description rdf:about=""/>
   </rdf:RDF>
</x:xmpmeta>
                                                                                                    
                                                                                                    
                                                                                                    
                                                                                                    
                                                                                                    
                                                                                                    
                                                                                                    
                                                                                                    
                                                                                                    
                                                                                                    
                                                                                                    
                                                                                                    
                                                                                                    
                                                                                                    
                                                                                                    
                                                                                                    
                                                                                                    
                                                                                                    
                                                                                                    
                                                                                                    
                           
<?xpacket end="w"?></metadata>
<defs>
    <style>
      .cls-1 {
        fill: #797979;
        fill-rule: evenodd;
      }
    </style>
  </defs>
  <path id="Forma_1" data-name="Forma 1" class="cls-1" d="M52.917,190.2V185H35v23.833h1.25V186.3H49.167Zm-3.994-3.033H37.083V211H55V193.487Zm-8.089,5.2H45a0.433,0.433,0,0,1,0,.866H40.833A0.433,0.433,0,0,1,40.833,192.367ZM51.25,207.1H40.833a0.434,0.434,0,0,1,0-.867H51.25A0.434,0.434,0,0,1,51.25,207.1Zm0-3.467H40.833a0.433,0.433,0,0,1,0-.866H51.25A0.433,0.433,0,0,1,51.25,203.633Zm0-3.466H40.833a0.434,0.434,0,0,1,0-.867H51.25A0.434,0.434,0,0,1,51.25,200.167Zm0-3.467H40.833a0.434,0.434,0,0,1,0-.867H51.25A0.434,0.434,0,0,1,51.25,196.7Zm-2.917-2.6v-6.067l5.833,6.067H48.333Z" transform="translate(-35 -185)"/>
</svg>
