<svg xmlns="http://www.w3.org/2000/svg" width="25" height="23" viewBox="0 0 25 23">
  <metadata><?xpacket begin="﻿" id="W5M0MpCehiHzreSzNTczkc9d"?>
<x:xmpmeta xmlns:x="adobe:ns:meta/" x:xmptk="Adobe XMP Core 5.6-c138 79.159824, 2016/09/14-01:09:01        ">
   <rdf:RDF xmlns:rdf="http://www.w3.org/1999/02/22-rdf-syntax-ns#">
      <rdf:Description rdf:about=""/>
   </rdf:RDF>
</x:xmpmeta>
                                                                                                    
                                                                                                    
                                                                                                    
                                                                                                    
                                                                                                    
                                                                                                    
                                                                                                    
                                                                                                    
                                                                                                    
                                                                                                    
                                                                                                    
                                                                                                    
                                                                                                    
                                                                                                    
                                                                                                    
                                                                                                    
                                                                                                    
                                                                                                    
                                                                                                    
                                                                                                    
                           
<?xpacket end="w"?></metadata>
<defs>
    <style>
      .cls-1 {
        fill: #797979;
        fill-rule: evenodd;
      }
    </style>
  </defs>
  <path class="cls-1" d="M56.491,107H34.515a1.545,1.545,0,0,0-1.524,1.557v16.154a1.545,1.545,0,0,0,1.524,1.557H56.491a1.545,1.545,0,0,0,1.523-1.557V108.561A1.545,1.545,0,0,0,56.491,107ZM56.107,123.57H34.9V109.188h21.21V123.57ZM51.24,130H39.808l2.875-2.987h5.68ZM40,122l14,8,7-4-6-7Zm15.56,4.56a1.5,1.5,0,0,1-2.121,0l-3.671-3.67a7.064,7.064,0,0,0,2.121-2.122l3.671,3.671A1.5,1.5,0,0,1,55.56,126.56ZM46,123a6,6,0,1,1,6-6A6,6,0,0,1,46,123Zm0-10.5a4.5,4.5,0,1,0,4.5,4.5A4.505,4.505,0,0,0,46,112.5ZM43.5,117h-1a3.5,3.5,0,0,1,3.5-3.5v1A2.5,2.5,0,0,0,43.5,117Z" transform="translate(-33 -107)"/>
</svg>
