<?xml version="1.0" encoding="utf-8"?>
<!-- Generator: Adobe Illustrator 22.1.0, SVG Export Plug-In . SVG Version: 6.00 Build 0)  -->
<svg version="1.1" id="Layer_1" xmlns="http://www.w3.org/2000/svg" xmlns:xlink="http://www.w3.org/1999/xlink" x="0px" y="0px"
	 viewBox="0 0 640 640" style="enable-background:new 0 0 640 640;" xml:space="preserve">
<style type="text/css">
	.st0{fill:#00EFD1;}
	.st1{fill:#FEDB41;}
	.st2{fill:#00ACEA;}
	.st3{fill:#FFFFFF;}
</style>
<path class="st0" d="M321,111.3L259.5,52H48.3l7.9,219.2h532.7V111.3H321z"/>
<path class="st1" d="M536.5,271.2v0.6H103.5V166.4h432.9V271.2z"/>
<path class="st2" d="M640,258l-58,329.1H58.7L0,258H640z"/>
<path class="st3" d="M390.6,419.3l-56.8,61.2V329.8c0-7.6-6.2-13.8-13.8-13.8s-13.8,6.2-13.8,13.8v150.6l-56.8-61.1
	c-5.2-5.5-13.9-5.9-19.4-0.7s-5.9,13.9-0.7,19.4l80.7,86.7c2.6,2.8,6.2,4.4,10.1,4.4c3.9,0,7.4-1.7,10.1-4.4l80.7-86.7
	c5.2-5.5,4.8-14.3-0.7-19.4S395.8,413.8,390.6,419.3z"/>
</svg>
