<svg xmlns="http://www.w3.org/2000/svg" width="15" height="23" viewBox="0 0 15 23">
  <metadata><?xpacket begin="﻿" id="W5M0MpCehiHzreSzNTczkc9d"?>
<x:xmpmeta xmlns:x="adobe:ns:meta/" x:xmptk="Adobe XMP Core 5.6-c138 79.159824, 2016/09/14-01:09:01        ">
   <rdf:RDF xmlns:rdf="http://www.w3.org/1999/02/22-rdf-syntax-ns#">
      <rdf:Description rdf:about=""/>
   </rdf:RDF>
</x:xmpmeta>
                                                                                                    
                                                                                                    
                                                                                                    
                                                                                                    
                                                                                                    
                                                                                                    
                                                                                                    
                                                                                                    
                                                                                                    
                                                                                                    
                                                                                                    
                                                                                                    
                                                                                                    
                                                                                                    
                                                                                                    
                                                                                                    
                                                                                                    
                                                                                                    
                                                                                                    
                                                                                                    
                           
<?xpacket end="w"?></metadata>
<defs>
    <style>
      .cls-1 {
        fill: #797979;
        fill-rule: evenodd;
      }
    </style>
  </defs>
  <path class="cls-1" d="M54.847,270.209a0.526,0.526,0,0,0-.384-0.147H51.608a5.6,5.6,0,0,0-1.069-2.352H54.43a0.527,0.527,0,0,0,.384-0.147,0.505,0.505,0,0,0,.15-0.376V265.52a0.5,0.5,0,0,0-.15-0.376A0.527,0.527,0,0,0,54.43,265H40.537a0.526,0.526,0,0,0-.384.147,0.5,0.5,0,0,0-.15.376v2.173a0.5,0.5,0,0,0,.159.368,0.521,0.521,0,0,0,.376.155h2.421q3.523,0,4.475,1.846h-6.9a0.526,0.526,0,0,0-.384.147,0.5,0.5,0,0,0-.15.376v1.667a0.5,0.5,0,0,0,.15.375,0.527,0.527,0,0,0,.384.147h7.13a3.209,3.209,0,0,1-1.712,2.043,7.682,7.682,0,0,1-3.548.7h-1.87a0.518,0.518,0,0,0-.376.156,0.5,0.5,0,0,0-.159.367v2.075a0.484,0.484,0,0,0,.15.36q3.206,3.333,8.316,9.33a0.5,0.5,0,0,0,.418.2h3.256a0.486,0.486,0,0,0,.484-0.294,0.44,0.44,0,0,0-.067-0.556Q47.684,281.3,44.9,278.4a8.574,8.574,0,0,0,4.609-1.8,6.075,6.075,0,0,0,2.154-3.823h2.805a0.526,0.526,0,0,0,.384-0.147A0.5,0.5,0,0,0,55,272.252v-1.667A0.5,0.5,0,0,0,54.847,270.209Z" transform="translate(-40 -265)"/>
</svg>
