<svg xmlns="http://www.w3.org/2000/svg" width="23" height="27" viewBox="0 0 23 27">
  <metadata><?xpacket begin="﻿" id="W5M0MpCehiHzreSzNTczkc9d"?>
<x:xmpmeta xmlns:x="adobe:ns:meta/" x:xmptk="Adobe XMP Core 5.6-c138 79.159824, 2016/09/14-01:09:01        ">
   <rdf:RDF xmlns:rdf="http://www.w3.org/1999/02/22-rdf-syntax-ns#">
      <rdf:Description rdf:about=""/>
   </rdf:RDF>
</x:xmpmeta>
                                                                                                    
                                                                                                    
                                                                                                    
                                                                                                    
                                                                                                    
                                                                                                    
                                                                                                    
                                                                                                    
                                                                                                    
                                                                                                    
                                                                                                    
                                                                                                    
                                                                                                    
                                                                                                    
                                                                                                    
                                                                                                    
                                                                                                    
                                                                                                    
                                                                                                    
                                                                                                    
                           
<?xpacket end="w"?></metadata>
<defs>
    <style>
      .cls-1 {
        fill: #797979;
        fill-rule: evenodd;
      }
    </style>
  </defs>
  <path id="Forma_1" data-name="Forma 1" class="cls-1" d="M44.5,501a1.277,1.277,0,0,0-1.562,1.183v8.811a1.277,1.277,0,0,0,1.562,1.183,1.277,1.277,0,0,0,1.562-1.183v-8.811A1.277,1.277,0,0,0,44.5,501Zm9.765,8.308a12.409,12.409,0,0,0-4.412-4.441,0.546,0.546,0,0,0-.265-0.081c-0.088,0-.377.038-0.377,0.53v2.408a0.874,0.874,0,0,0,.373.719l0.027,0.021a9.553,9.553,0,0,1,3.438,7.219c0,5.049-3.835,9.156-8.549,9.156s-8.549-4.107-8.549-9.156a9.574,9.574,0,0,1,3.356-7.149,1.354,1.354,0,0,0,.481-0.975v-2.141c0-.544-0.317-0.587-0.414-0.587a0.889,0.889,0,0,0-.437.161A12.609,12.609,0,0,0,33,515.683C33,522.475,38.159,528,44.5,528S56,522.474,56,515.683A12.618,12.618,0,0,0,54.265,509.308Z" transform="translate(-33 -501)"/>
</svg>
