<svg height="512pt" viewBox="-68 0 512 512.00059" width="512pt" xmlns="http://www.w3.org/2000/svg"><path d="m281.601562 435.199219v68.265625l85.332032-85.332032h-68.265625c-9.425781 0-17.066407 7.640626-17.066407 17.066407zm0 0" fill="#bddbff"/><path d="m119.46875 76.800781h-51.203125v273.066407h238.933594v-273.066407zm0 0" fill="#bddbff"/><g fill="#3d9ae2"><path d="m375.363281 418.652344c0-.175782.105469-.339844.105469-.519532v-392.53125c0-14.140624-11.460938-25.601562-25.601562-25.601562h-324.265626c-14.140624 0-25.601562 11.460938-25.601562 25.601562v460.796876c0 14.140624 11.460938 25.601562 25.601562 25.601562h256c2.261719-.003906 4.429688-.902344 6.03125-2.5l85.335938-85.332031c.710938-.726563 1.289062-1.574219 1.707031-2.503907.117188-.261718.1875-.519531.28125-.792968.230469-.714844.371094-1.460938.40625-2.21875zm-358.296875 67.746094v-460.796876c0-4.714843 3.820313-8.535156 8.535156-8.535156h324.265626c4.714843 0 8.535156 3.820313 8.535156 8.535156v384h-59.734375c-14.140625 0-25.601563 11.460938-25.601563 25.597657v59.734375h-247.464844c-4.714843 0-8.535156-3.820313-8.535156-8.535156zm273.066406-3.53125v-47.667969c0-4.710938 3.820313-8.53125 8.535157-8.53125h47.667969zm0 0"/><path d="m307.199219 358.398438c4.714843 0 8.535156-3.820313 8.535156-8.53125v-273.066407c0-4.714843-3.820313-8.535156-8.535156-8.535156h-238.933594c-4.710937 0-8.53125 3.820313-8.53125 8.535156v273.066407c0 4.710937 3.820313 8.53125 8.53125 8.53125zm-8.53125-17.066407h-170.667969v-51.199219h170.667969zm0-136.53125h-170.667969v-51.199219h170.667969zm-187.734375 0h-34.132813v-51.199219h34.132813zm-34.132813 17.066407h34.132813v51.199218h-34.132813zm51.199219 0h170.667969v51.199218h-170.667969zm170.667969-85.335938h-170.667969v-51.199219h170.667969zm-221.867188-51.199219h34.132813v51.199219h-34.132813zm0 256v-51.199219h34.132813v51.199219zm0 0"/></g></svg>