<?xml version="1.0" encoding="iso-8859-1"?>
<!-- Generator: Adobe Illustrator 16.0.0, SVG Export Plug-In . SVG Version: 6.00 Build 0)  -->
<!DOCTYPE svg PUBLIC "-//W3C//DTD SVG 1.1//EN" "http://www.w3.org/Graphics/SVG/1.1/DTD/svg11.dtd">
<svg xmlns="http://www.w3.org/2000/svg" xmlns:xlink="http://www.w3.org/1999/xlink" version="1.1" id="Capa_1" x="0px" y="0px" width="512px" height="512px" viewBox="0 0 64 64" style="enable-background:new 0 0 64 64;" xml:space="preserve">
<g>
	<g>
		<g id="Rewind_copy_6_3_">
			<g>
				<path d="M36.25,21.728l6.791,4.031l1.99-3.706l-6.79-4.033L36.25,21.728z M32,0C14.327,0,0,14.327,0,32s14.327,32,32,32      s32-14.327,32-32S49.673,0,32,0z M46.729,23.062L39.93,35.527l-0.49,0.873l-0.979,1.746c-0.319,0.567-0.679,1.338-1.327,1.668      l-7.307,4.975c-0.261,0.133-0.543,0.191-0.825,0.199V45H18v-2h9.012l0.527-8.885c-0.046-0.741,0.416-1.451,0.734-2.021      l0.98-1.746l7.29-13.338c0.542-0.965,1.74-1.295,2.678-0.738l6.791,4.033C46.949,20.863,47.271,22.097,46.729,23.062z       M33.893,26.118l-1.96,3.493c0,0-1.324,2.36-1.96,3.493c-0.636,1.133-0.852,2.849-0.817,3.402l-0.675,4.818      c0.031,0.504,0.305,0.957,0.729,1.209s0.943,0.27,1.382,0.045l3.72-3.01c0.484-0.246,1.821-1.311,2.451-2.433      c0.629-1.122,0.979-1.745,0.979-1.745l0.489-0.873l2.451-4.367l1.43-2.664l-6.791-4.031L33.893,26.118z" fill="#147bea"/>
			</g>
		</g>
	</g>
</g>
<g>
</g>
<g>
</g>
<g>
</g>
<g>
</g>
<g>
</g>
<g>
</g>
<g>
</g>
<g>
</g>
<g>
</g>
<g>
</g>
<g>
</g>
<g>
</g>
<g>
</g>
<g>
</g>
<g>
</g>
</svg>
