<?xml version="1.0" encoding="utf-8"?>
<!-- Generator: Adobe Illustrator 23.0.0, SVG Export Plug-In . SVG Version: 6.00 Build 0)  -->
<svg version="1.1" id="Capa_1" xmlns="http://www.w3.org/2000/svg" xmlns:xlink="http://www.w3.org/1999/xlink" x="0px" y="0px"
	 viewBox="0 0 45.5 45.5" style="enable-background:new 0 0 45.5 45.5;" xml:space="preserve">
<style type="text/css">
	.st0{fill:#CED7D8;}
	.st1{fill:#2A57A0;}
</style>
<rect x="0.2" y="0.1" class="st0" width="45.3" height="45.3"/>
<g>
	<path class="st1" d="M22.8,6.8c4.2,0,7.5,3.4,7.5,7.5c0,4.2-3.4,7.5-7.5,7.5c-4.2,0-7.5-3.4-7.5-7.5C15.2,10.2,18.6,6.8,22.8,6.8z
		 M22.8,39.6c-4.1,0-7.9-1.5-10.9-4c-0.7-0.6-1.1-1.5-1.1-2.4c0-4.2,3.4-7.6,7.6-7.6h8.8c4.2,0,7.6,3.4,7.6,7.6
		c0,0.9-0.4,1.8-1.1,2.4C30.7,38.1,26.9,39.6,22.8,39.6z"/>
</g>
</svg>
