<?xml version="1.0" encoding="utf-8"?>
<!-- Generator: Adobe Illustrator 22.0.1, SVG Export Plug-In . SVG Version: 6.00 Build 0)  -->
<svg version="1.1" id="Layer_1" xmlns="http://www.w3.org/2000/svg" xmlns:xlink="http://www.w3.org/1999/xlink" x="0px" y="0px"
	 viewBox="0 0 28 28" style="enable-background:new 0 0 28 28;" xml:space="preserve">
<style type="text/css">
	.st0{fill:#F41111;}
	.st1{fill:#0D46A0;}
	.st2{fill:#424242;}
	.st3{fill:#FFFFFF;}
</style>
<path class="st0" d="M24,16.3l-8.7,8.8c-0.1,0.1-0.2,0.1-0.3,0.1c-0.1,0-0.2,0-0.3-0.1l-4.2-4.2c-0.2-0.2-0.2-0.5,0-0.6
	c0.2-0.2,0.5-0.2,0.6,0l3.9,3.9l8.1-8.1l-3.5-3.6c-0.2-0.2-0.2-0.5,0-0.6c0.2-0.2,0.5-0.2,0.6,0l3.9,3.9
	C24.2,15.8,24.2,16.1,24,16.3L24,16.3z"/>
<path class="st1" d="M4.4,14.6C4.4,14.6,4.4,14.6,4.4,14.6C4.4,14.6,4.4,14.6,4.4,14.6C4.4,14.6,4.4,14.6,4.4,14.6
	C4.4,14.6,4.4,14.6,4.4,14.6c0,0.1,0,0.1,0,0.1c0,0,0,0,0,0c0,0,0,0,0,0c0,0,0,0,0,0c0,0,0,0,0,0c0,0,0,0,0,0c0,0,0,0,0,0
	c0,0,0,0,0,0L6.7,17c0.1,0.1,0.2,0.1,0.3,0.1c0.1,0,0.2,0,0.3-0.1c0.2-0.2,0.2-0.5,0-0.6l-1.9-1.9l1.7-1.7c0.1-0.1,0.1-0.2,0.1-0.3
	c0-0.1,0-0.2-0.1-0.3l-1.7-1.7l6.1-6.1l3.5,3.6c0.2,0.2,0.5,0.2,0.6,0c0.2-0.2,0.2-0.5,0-0.6l-3.9-3.9c-0.1-0.1-0.2-0.1-0.3-0.1
	c-0.1,0-0.2,0-0.3,0.1l-6.7,6.7c0,0,0,0,0,0c0,0,0,0,0,0c0,0,0,0,0,0c0,0,0,0,0,0c0,0,0,0,0,0c0,0,0,0,0,0v0c0,0,0,0,0,0
	c0,0,0,0,0,0c0,0,0,0,0,0c0,0,0,0,0,0c0,0,0,0,0,0c0,0,0,0,0,0c0,0,0,0,0,0L4.4,14.6L4.4,14.6C4.4,14.5,4.4,14.5,4.4,14.6
	C4.4,14.5,4.4,14.5,4.4,14.6z M5.3,11.5l0.9,0.9l-0.9,0.9V11.5z"/>
<path class="st2" d="M22,5.4c-0.4-0.4-1-0.7-1.6-0.7c-0.6,0-1.2,0.2-1.6,0.7l-4.4,4.5c-0.2,0.2-0.2,0.5,0,0.6l0,0l-8.2,8.3
	c-1.3,1.3-1.8,2.6-1.5,3.4L4,22.9c-0.2,0.2-0.2,0.5,0,0.6c0.1,0.1,0.2,0.1,0.3,0.1c0.1,0,0.2,0,0.3-0.1l0.7-0.7
	C5.4,22.9,5.6,23,5.8,23c0.2,0,0.5,0,0.8-0.2c0.6-0.2,1.3-0.7,2-1.4l8.2-8.3l0,0c0.1,0.1,0.2,0.1,0.3,0.1c0.1,0,0.2,0,0.3-0.1
	L22,8.6C22.9,7.7,22.9,6.3,22,5.4z"/>
<path class="st3" d="M6.3,22c-0.4,0.1-0.7,0.1-0.8,0c-0.2-0.2,0-1.1,0.9-2.2l1.3,1.3C7.2,21.5,6.7,21.8,6.3,22z"/>
<path class="st3" d="M8.3,20.4l-1.3-1.3l7.9-8l0.3,0.3L15,11.8c-0.2,0.2-0.2,0.5,0,0.6c0.1,0.1,0.2,0.1,0.3,0.1c0.1,0,0.2,0,0.3-0.1
	l0.3-0.3l0.3,0.3L8.3,20.4z"/>
<path class="st3" d="M21.3,8l-4.1,4.2l0,0c0,0,0,0,0,0l-0.6-0.6l4.3-4.3C21,7,21,6.7,20.8,6.6c-0.2-0.2-0.5-0.2-0.6,0l-4.3,4.3
	l-0.6-0.6c0,0,0,0,0,0l0,0L19.4,6c0.3-0.3,0.6-0.4,1-0.4c0.4,0,0.7,0.1,1,0.4C21.9,6.6,21.9,7.5,21.3,8z"/>
</svg>
