<svg xmlns="http://www.w3.org/2000/svg" width="40" height="35" viewBox="0 0 40 35">
  <metadata><?xpacket begin="﻿" id="W5M0MpCehiHzreSzNTczkc9d"?>
<x:xmpmeta xmlns:x="adobe:ns:meta/" x:xmptk="Adobe XMP Core 5.6-c138 79.159824, 2016/09/14-01:09:01        ">
   <rdf:RDF xmlns:rdf="http://www.w3.org/1999/02/22-rdf-syntax-ns#">
      <rdf:Description rdf:about=""/>
   </rdf:RDF>
</x:xmpmeta>
                                                                                                    
                                                                                                    
                                                                                                    
                                                                                                    
                                                                                                    
                                                                                                    
                                                                                                    
                                                                                                    
                                                                                                    
                                                                                                    
                                                                                                    
                                                                                                    
                                                                                                    
                                                                                                    
                                                                                                    
                                                                                                    
                                                                                                    
                                                                                                    
                                                                                                    
                                                                                                    
                           
<?xpacket end="w"?></metadata>
<defs>
    <style>
      .cls-1 {
        fill: #6888b0;
        fill-rule: evenodd;
      }
    </style>
  </defs>
  <path id="Forma_1_copy_8" data-name="Forma 1 copy 8" class="cls-1" d="M350.08,149.858H343a0.874,0.874,0,0,0-.871.886v18.74h-3.053V140.635a0.873,0.873,0,0,0-.871-0.886h-7.13a0.873,0.873,0,0,0-.871.886v28.9H327.15V155.58a0.874,0.874,0,0,0-.871-0.886h-7.135a0.874,0.874,0,0,0-.871.886v13.954h-1.939a0.846,0.846,0,0,1-.534-0.2,1.327,1.327,0,0,1-.292-0.986V136.886a0.874,0.874,0,0,0-.871-0.886h-2.766a0.886,0.886,0,0,0,0,1.771h1.89v4h-1.89a0.886,0.886,0,0,0,0,1.772h1.89v3.995h-1.89a0.886,0.886,0,0,0,0,1.771h1.89v4h-1.89a0.886,0.886,0,0,0,0,1.772h1.89v4h-1.89a0.886,0.886,0,0,0,0,1.772h1.89v4h-1.89a0.886,0.886,0,0,0,0,1.771h1.89V168a3.079,3.079,0,0,0,.871,2.366,2.679,2.679,0,0,0,1.7.639h33.8a0.874,0.874,0,0,0,.871-0.886V150.795A0.957,0.957,0,0,0,350.08,149.858Z" transform="translate(-311 -136)"/>
</svg>
