<svg xmlns="http://www.w3.org/2000/svg" width="47" height="37.376" viewBox="0 0 47 37.376">
  <metadata><?xpacket begin="﻿" id="W5M0MpCehiHzreSzNTczkc9d"?>
<x:xmpmeta xmlns:x="adobe:ns:meta/" x:xmptk="Adobe XMP Core 5.6-c138 79.159824, 2016/09/14-01:09:01        ">
   <rdf:RDF xmlns:rdf="http://www.w3.org/1999/02/22-rdf-syntax-ns#">
      <rdf:Description rdf:about=""/>
   </rdf:RDF>
</x:xmpmeta>
                                                                                                    
                                                                                                    
                                                                                                    
                                                                                                    
                                                                                                    
                                                                                                    
                                                                                                    
                                                                                                    
                                                                                                    
                                                                                                    
                                                                                                    
                                                                                                    
                                                                                                    
                                                                                                    
                                                                                                    
                                                                                                    
                                                                                                    
                                                                                                    
                                                                                                    
                                                                                                    
                           
<?xpacket end="w"?></metadata>
<defs>
    <style>
      .cls-1 {
        fill: #6888b0;
        fill-rule: evenodd;
      }
    </style>
  </defs>
  <path id="Forma_1" data-name="Forma 1" class="cls-1" d="M338.853,173.421H312.147a2.137,2.137,0,0,0,0,4.273h26.7A2.137,2.137,0,0,0,338.853,173.421ZM309.478,157.4v5.341a1.6,1.6,0,1,0,3.2,0V157.4A1.6,1.6,0,0,0,309.478,157.4Zm5.34-2.135v7.477a1.6,1.6,0,1,0,3.205,0v-7.477A1.6,1.6,0,1,0,314.818,155.262Zm5.341-2.137v9.613a1.6,1.6,0,1,0,3.2,0v-9.613A1.6,1.6,0,1,0,320.159,153.125Zm26.7-12.818H304.137A2.137,2.137,0,0,0,302,142.444v26.7a2.137,2.137,0,0,0,2.137,2.137H344.91c-0.063-.055-0.133-0.1-0.191-0.157l-2.958-2.959a11.429,11.429,0,0,1-12.92-1.156H306.272V144.579h38.455V150.6a11.413,11.413,0,0,1,1.407,13.193L349,166.661V142.443A2.136,2.136,0,0,0,346.863,140.307Zm-2.492,24.747a0.95,0.95,0,0,0-.777-0.271l-0.45-.449a9.365,9.365,0,1,0-.846.845l0.451,0.449a0.944,0.944,0,0,0,.271.779l3.213,3.213a0.947,0.947,0,0,0,.676.279,0.955,0.955,0,0,0,.677-1.63Zm-2.981-1.631a7.414,7.414,0,1,1,2.17-5.24A7.365,7.365,0,0,1,341.39,163.423Z" transform="translate(-302 -140.312)"/>
</svg>
