<?xml version="1.0" encoding="utf-8"?>
<!-- Generator: Adobe Illustrator 22.0.1, SVG Export Plug-In . SVG Version: 6.00 Build 0)  -->
<svg version="1.1" id="Layer_1" xmlns="http://www.w3.org/2000/svg" xmlns:xlink="http://www.w3.org/1999/xlink" x="0px" y="0px"
	 viewBox="0 0 48 48" style="enable-background:new 0 0 48 48;" xml:space="preserve">
<style type="text/css">
	.st0{fill:#FECA09;}
	.st1{fill:#FFFFFF;}
	.st2{fill:#4897F7;}
</style>
<g>
	<polygon class="st0" points="24,9 36.8,34.6 11.2,34.6 	"/>
	<g>
		<path class="st1" d="M24,28.2c-0.4,0-0.8-0.4-0.8-0.8v-8.8c0-0.4,0.4-0.8,0.8-0.8c0.4,0,0.8,0.4,0.8,0.8v8.8
			C24.8,27.9,24.4,28.2,24,28.2"/>
		<path class="st1" d="M24.8,30.6c0,0.4-0.4,0.8-0.8,0.8c-0.4,0-0.8-0.4-0.8-0.8s0.4-0.8,0.8-0.8C24.4,29.8,24.8,30.2,24.8,30.6"/>
	</g>
	<g>
		<path class="st2" d="M33.6,47c-0.3,0-0.6-0.2-0.7-0.5c-0.2-0.4,0-0.9,0.4-1.1c8-3.6,13.1-11.6,13.1-20.4c0-12.4-10-22.4-22.4-22.4
			S1.6,12.7,1.6,25c0,7.1,3.4,13.6,9.3,17.7c0.4,0.3,0.4,0.8,0.2,1.1c-0.3,0.4-0.8,0.4-1.1,0.2C3.6,39.6,0,32.7,0,25
			C0,11.8,10.8,1,24,1s24,10.8,24,24c0,9.4-5.5,18-14.1,21.9C33.8,46.9,33.7,47,33.6,47"/>
		<polygon class="st2" points="12,41 15.2,46.6 8.8,45.8 		"/>
	</g>
</g>
</svg>
